<?xml version="1.0" standalone="no"?>
<!DOCTYPE svg PUBLIC "-//W3C//DTD SVG 20010904//EN"
 "http://www.w3.org/TR/2001/REC-SVG-20010904/DTD/svg10.dtd">
<svg version="1.0" xmlns="http://www.w3.org/2000/svg"
 width="512.000000pt" height="512.000000pt" viewBox="0 0 512.000000 512.000000"
 preserveAspectRatio="xMidYMid meet">
<metadata>
Created by potrace 1.14, written by Peter Selinger 2001-2017
</metadata>
<g transform="translate(0.000000,512.000000) scale(0.100000,-0.100000)"
fill="#000000" stroke="none">
<path d="M2483 4803 c-38 -11 -66 -29 -99 -62 -64 -63 -78 -103 -77 -208 3
-201 237 -313 404 -194 102 72 134 224 73 342 -54 105 -181 156 -301 122z"/>
<path d="M1089 4239 c-92 -14 -170 -83 -199 -176 -10 -34 -17 -72 -15 -85 20
-102 33 -129 94 -187 52 -51 108 -78 166 -82 129 -10 232 62 267 186 27 97 2
183 -78 261 -73 73 -143 97 -235 83z"/>
<path d="M3943 4239 c-58 -11 -99 -34 -151 -86 -57 -58 -84 -119 -84 -192 0
-140 113 -253 253 -253 73 0 134 27 193 86 102 100 118 223 43 336 -47 71 -92
98 -192 114 -11 1 -39 -1 -62 -5z"/>
<path d="M2325 4135 c-38 -7 -83 -15 -100 -19 -16 -3 -39 -8 -51 -10 -170 -34
-405 -147 -579 -277 -101 -76 -232 -204 -300 -294 -25 -33 -49 -64 -53 -70
-25 -30 -103 -171 -136 -243 -66 -147 -114 -323 -131 -480 -10 -93 -4 -320 10
-388 3 -12 7 -39 11 -60 33 -218 167 -537 331 -789 74 -112 152 -222 188 -262
5 -6 20 -24 32 -40 81 -106 340 -379 460 -483 22 -19 67 -59 100 -88 129 -112
250 -205 303 -230 48 -24 67 -27 150 -27 124 0 165 19 336 156 640 515 1050
1069 1199 1622 14 50 28 110 30 132 3 22 9 65 14 95 14 83 11 345 -4 430 -21
115 -22 122 -35 170 -7 25 -12 47 -12 50 -2 16 -41 117 -74 190 -50 111 -124
233 -201 332 -10 13 -70 75 -133 138 -244 243 -529 387 -885 445 -98 16 -375
16 -470 0z"/>
<path d="M495 2806 c-85 -26 -133 -68 -168 -144 -57 -127 2 -277 132 -335 56
-25 159 -27 212 -5 122 52 186 191 147 320 -16 52 -88 132 -138 152 -54 21
-136 27 -185 12z"/>
<path d="M4472 2804 c-43 -13 -96 -46 -120 -74 -7 -8 -25 -39 -39 -68 -44 -92
-23 -211 50 -282 132 -129 355 -88 429 78 90 201 -104 411 -320 346z"/>
</g>
</svg>
